<?xml version="1.0" standalone="no"?><!DOCTYPE svg PUBLIC "-//W3C//DTD SVG 1.1//EN" "http://www.w3.org/Graphics/SVG/1.1/DTD/svg11.dtd"><svg t="1757342432831" class="icon" viewBox="0 0 1024 1024" version="1.1" xmlns="http://www.w3.org/2000/svg" p-id="4232" xmlns:xlink="http://www.w3.org/1999/xlink" width="200" height="200"><path d="M 953.237 312 c 0 0 -0.0695851 0.190335 -0.195451 0.542352 l -0.0767478 -0.542352 l -73.0844 151.585 l 77.5265 -8.91914 c 5.58214 64.5829 -3.53757 130.081 -27.4676 192.11 c -20.9605 54.3324 -51.9287 102.927 -92.0443 144.437 c -38.7526 40.0993 -84.3734 71.9425 -135.594 94.6453 c -51.2206 22.702 -105.453 35.1178 -161.189 36.8994 c -57.6971 1.84502 -114.5 -7.84774 -168.831 -28.8071 c -54.3324 -20.9605 -102.928 -51.9287 -144.438 -92.0443 c -40.0983 -38.7526 -71.9425 -84.3734 -94.6453 -135.594 c -22.702 -51.2206 -35.1178 -105.453 -36.8994 -161.189 c -1.844 -57.696 7.84774 -114.5 28.8081 -168.831 c 20.9605 -54.3324 51.9287 -102.928 92.0435 -144.438 c 38.7526 -40.0983 84.3751 -71.9425 135.594 -94.6453 c 51.2206 -22.702 105.454 -35.1178 161.189 -36.8994 c 57.696 -1.844 114.5 7.84774 168.831 28.8081 c 49.3899 19.054 94.2047 46.496 133.2 81.5665 l 20.5285 -22.8259 c -41.7847 -37.5789 -89.7891 -66.9795 -142.679 -87.3833 c -58.1863 -22.4473 -119.037 -32.8266 -180.862 -30.8496 c -59.7068 1.90949 -117.795 15.2043 -172.647 39.5171 c -54.8533 24.3127 -103.715 58.4215 -145.23 101.377 c -42.987 44.479 -76.1637 96.5353 -98.6109 154.722 C 74.015 383.427 63.635 444.28 65.612 506.105 c 1.90847 59.7079 15.2043 117.795 39.5171 172.647 c 24.3127 54.8533 58.4215 103.716 101.377 145.231 c 44.479 42.987 96.5353 76.1637 154.722 98.6109 c 58.1863 22.4473 119.037 32.8266 180.862 30.8496 c 59.7079 -1.90847 117.795 -15.2043 172.647 -39.518 c 54.8533 -24.3127 103.716 -58.4206 145.23 -101.377 c 42.987 -44.479 76.1637 -96.5353 98.6109 -154.722 C 1001.87 545.607 999.978 422.788 953.237 312 Z" p-id="4233"></path><path d="M 522.46 720.811 c 11.7641 -135.42 65.4821 -264.973 161.193 -388.625 l 0 -68.4512 L 348.02 263.733 l 0 77.2835 l 234.058 0 c -88.3235 119.238 -141.317 245.858 -158.982 379.792 L 522.46 720.811 Z" p-id="4234"></path></svg>