<?xml version="1.0" standalone="no"?><!DOCTYPE svg PUBLIC "-//W3C//DTD SVG 1.1//EN" "http://www.w3.org/Graphics/SVG/1.1/DTD/svg11.dtd"><svg t="1757439859807" class="icon" viewBox="0 0 1024 1024" version="1.1" xmlns="http://www.w3.org/2000/svg" p-id="5894" xmlns:xlink="http://www.w3.org/1999/xlink" width="200" height="200"><path d="M469.333333 448m-320 0a320 320 0 1 0 640 0 320 320 0 1 0-640 0Z" fill="#FEE440" p-id="5895"></path><path d="M512 149.333333a362.666667 362.666667 0 1 1-181.333333 676.906667 88.533333 88.533333 0 0 0-44.8-11.306667 194.986667 194.986667 0 0 0-49.92 8.106667 117.973333 117.973333 0 0 0-14.08-93.44A358.826667 358.826667 0 0 1 149.333333 512 362.666667 362.666667 0 0 1 512 149.333333m0-64A426.666667 426.666667 0 0 0 170.666667 768c17.493333 23.253333-21.333333 108.8 0 128a22.826667 22.826667 0 0 0 15.36 4.48c26.88 0 73.386667-21.333333 99.84-21.333333a25.813333 25.813333 0 0 1 12.8 2.56A426.666667 426.666667 0 1 0 512 85.333333z" p-id="5896"></path><path d="M608 405.333333h-192a32 32 0 0 1 0-64h192a32 32 0 0 1 0 64zM672 533.333333h-320a32 32 0 0 1 0-64h320a32 32 0 0 1 0 64zM565.333333 661.333333h-106.666666a32 32 0 0 1 0-64h106.666666a32 32 0 0 1 0 64z" p-id="5897" data-spm-anchor-id="a313x.search_index.0.i0.36753a81aaUJss"></path></svg>